# xmcd
#
# Track frame offsets:
#	158
#	18217
#	29901
#	47015
#	69500
#	83174
#	94274
#	116105
#	126500
#	140622
#	156108
#	174921
#	193498
#	206156
#	220943
#
# Disc length: 3121 seconds
#
# Revision: 0
# Processed by: cddbd v1.4PL0 Copyright (c) Steve Scherf et al.
# Submitted via: dBpowerAMP V4.0
#
DISCID=e50c2f0f
DTITLE=Hoggie and the Sharpetones - Drive On
DYEAR=2000
DGENRE=Blues
TTITLE0=Messing with the Kid
TTITLE1=Can't Get the Stuff
TTITLE2=Smack-dab in the Middle
TTITLE3=Full Time Lover
TTITLE4=Home Every Time
TTITLE5=Vitamin A,B,C
TTITLE6=Help Me
TTITLE7=Nobody's Fault But Mine
TTITLE8=She Caught the K.T.
TTITLE9=Bayou Jubilee
TTITLE10=Roosevelt and Ira Lee
TTITLE11=Louisiana Blues
TTITLE12=Oh Oh, No No
TTITLE13=Drive On
TTITLE14=Hey, bartender
EXTD=Produced and Mixed by Martin White and Brian Sharpe
EXTT0=
EXTT1=
EXTT2=
EXTT3=
EXTT4=
EXTT5=
EXTT6=
EXTT7=
EXTT8=
EXTT9=
EXTT10=
EXTT11=
EXTT12=
EXTT13=
EXTT14=
PLAYORDER=
